# xmcd CD database file
#
# Track frame offsets:
#	150
#	22385
#	55770
#	77924
#	117119
#	142919
#	164754
#	203711
#
# Disc length: 3038 seconds
#
# Revision: 0
# Processed by: cddbd v1.5.1PL0 Copyright (c) Steve Scherf et al.
# Submitted via: CDex 1.51
#
DISCID=6d0bdc08
DTITLE=Krzysztof Scieranski - No Radio
DYEAR=1900
DGENRE=Jazz
TTITLE0=No radio
TTITLE1=Homeless song
TTITLE2=Kici borzolok
TTITLE3=Touching you
TTITLE4=Where is that girl
TTITLE5=Milk and dry
TTITLE6=Landscape
TTITLE7=Coma
EXTD=
EXTT0=
EXTT1=
EXTT2=
EXTT3=
EXTT4=
EXTT5=
EXTT6=
EXTT7=
PLAYORDER=
